# xmcd
#
# Track frame offsets:
# 150
# 18202
# 36072
# 53232
# 72500
# 86940
# 103860
# 125754
# 143770
# 162672
# 177912
# 195342
# 214372
# 231440
#
# Disc length: 3327 seconds
#
#
# Revision: 0
# Processed by: cddbd v1.5.1PL2 Copyright (c) Steve Scherf et al.
# Submitted via: FreeRIP 2.943 
#
DISCID=d20cfd0e
DTITLE=Odair José - Odair José - As Minhas Canções
DYEAR=1900
DGENRE=Sertanejo
TTITLE0=01 - Pele Macia
TTITLE1=02 - Cadê Você
TTITLE2=03 - A Noite Mais Linda Do Mundo (A Felicidade)
TTITLE3=04 - Lembranças
TTITLE4=05 - Que Saudade De Você
TTITLE5=06 - Revista Proibida
TTITLE6=07 - Pout-Pourri: Deixe Essa Vergonha De Lado  - Uma Vida Só (Pare De Tomar a Pílula)  - Eu Chorei (O Parto)
TTITLE7=08 - Baby
TTITLE8=09 - Eu, Você e a Praça
TTITLE9=10 - Vou Tirar Você Desse Lugar
TTITLE10=11 - Na Minha Opinnião (Eu Te Quero, Te Adoro, Te Gosto)
TTITLE11=12 - Esta Noite Você Vai Ter Que Ser Minha
TTITLE12=13 - Minhas Coisas
TTITLE13=14 - Pout-Pourri: Garota De Programa  - Dê Um Chega Na Tristeza  - A Nossa Primeira Vez
EXTD=
EXTT0=
EXTT1=
EXTT2=
EXTT3=
EXTT4=
EXTT5=
EXTT6=
EXTT7=
EXTT8=
EXTT9=
EXTT10=
EXTT11=
EXTT12=
EXTT13=
PLAYORDER=
